<?xml version="1.0" encoding="utf-8"?>
<!-- Generator: Adobe Illustrator 22.1.0, SVG Export Plug-In . SVG Version: 6.00 Build 0)  -->
<svg version="1.1" id="Ebene_1" xmlns="http://www.w3.org/2000/svg" xmlns:xlink="http://www.w3.org/1999/xlink" x="0px" y="0px"
	 viewBox="0 0 48 48" style="enable-background:new 0 0 48 48;" xml:space="preserve">
<style type="text/css">
	.st0{fill:#FF0000;}
</style>
<title>heart-line</title>
<path class="st0" d="M24,43.8c-0.3,0-0.5-0.1-0.8-0.3c-7.7-5.9-12.9-11-16.6-16.1C1.9,21,0.8,15.1,3.4,9.8c1.8-3.8,7.1-6.9,13.3-5.1
	c2.9,0.8,5.5,2.6,7.3,5.2c1.8-2.5,4.4-4.4,7.3-5.2c6.2-1.8,11.5,1.2,13.3,5.1c2.6,5.2,1.5,11.3-3.2,17.7
	c-3.7,5.1-8.9,10.2-16.6,16.1C24.5,43.8,24.3,43.8,24,43.8z M13.1,7c-3-0.1-5.8,1.4-7.3,4c-2.1,4.4-1.1,9.2,2.9,14.8
	c4.4,5.6,9.5,10.6,15.3,14.8c5.8-4.3,10.9-9.2,15.3-14.8c4.1-5.6,5.1-10.4,2.9-14.8c-1.4-2.7-5.5-4.9-10-3.7c-3,0.8-5.5,3-6.7,5.8
	c-0.3,0.7-1.1,1.1-1.8,0.7c-0.3-0.1-0.5-0.4-0.7-0.7c-1.4-2.7-3.8-4.9-6.7-5.8C15.1,7.2,14.1,7,13.1,7z"/>
<rect x="11.2" y="5" class="st0" width="1.6" height="0.8"/>
</svg>
